<mxfile host="app.diagrams.net" modified="2023-12-24T14:19:36.735Z" agent="Mozilla/5.0 (Windows NT 10.0; Win64; x64; rv:121.0) Gecko/20100101 Firefox/121.0" etag="hI6PNKKnqfU6QRN3ZgDD" version="22.1.11" type="github">
  <diagram name="ページ1" id="SMYoxfFGcKU21PN9oavQ">
    <mxGraphModel dx="421" dy="330" grid="1" gridSize="10" guides="1" tooltips="1" connect="1" arrows="1" fold="1" page="1" pageScale="1" pageWidth="827" pageHeight="1169" math="0" shadow="0">
      <root>
        <mxCell id="0" />
        <mxCell id="1" parent="0" />
        <mxCell id="7bI6K9M_-s1yWx4aNFLl-32" value="" style="endArrow=none;html=1;rounded=1;strokeWidth=10;startArrow=none;startFill=0;endFill=0;strokeColor=#333333;" edge="1" parent="1">
          <mxGeometry width="50" height="50" relative="1" as="geometry">
            <mxPoint x="60" y="40" as="sourcePoint" />
            <mxPoint x="160" y="70" as="targetPoint" />
            <Array as="points">
              <mxPoint x="160" y="40" />
              <mxPoint x="160" y="160" />
              <mxPoint x="40" y="160" />
              <mxPoint x="40" y="40" />
              <mxPoint x="80" y="40" />
              <mxPoint x="100" y="70" />
            </Array>
          </mxGeometry>
        </mxCell>
        <mxCell id="7bI6K9M_-s1yWx4aNFLl-37" value="" style="endArrow=none;html=1;rounded=1;strokeWidth=10;strokeColor=#333333;" edge="1" parent="1">
          <mxGeometry width="50" height="50" relative="1" as="geometry">
            <mxPoint x="80" y="40" as="sourcePoint" />
            <mxPoint x="160" y="70" as="targetPoint" />
            <Array as="points">
              <mxPoint x="110" y="40" />
              <mxPoint x="130" y="70" />
            </Array>
          </mxGeometry>
        </mxCell>
        <mxCell id="7bI6K9M_-s1yWx4aNFLl-38" value="" style="endArrow=none;html=1;rounded=1;strokeWidth=10;strokeColor=#333333;" edge="1" parent="1">
          <mxGeometry width="50" height="50" relative="1" as="geometry">
            <mxPoint x="110" y="40" as="sourcePoint" />
            <mxPoint x="160" y="70" as="targetPoint" />
            <Array as="points">
              <mxPoint x="140" y="40" />
              <mxPoint x="160" y="70" />
            </Array>
          </mxGeometry>
        </mxCell>
        <mxCell id="7bI6K9M_-s1yWx4aNFLl-53" value="" style="endArrow=none;html=1;rounded=1;strokeWidth=10;strokeColor=#333333;" edge="1" parent="1">
          <mxGeometry width="50" height="50" relative="1" as="geometry">
            <mxPoint x="124" y="120" as="sourcePoint" />
            <mxPoint x="124" y="100" as="targetPoint" />
            <Array as="points">
              <mxPoint x="74" y="110" />
            </Array>
          </mxGeometry>
        </mxCell>
        <mxCell id="7bI6K9M_-s1yWx4aNFLl-55" value="" style="endArrow=none;html=1;rounded=0;strokeWidth=10;strokeColor=#333333;" edge="1" parent="1">
          <mxGeometry width="50" height="50" relative="1" as="geometry">
            <mxPoint x="74" y="135" as="sourcePoint" />
            <mxPoint x="124" y="135" as="targetPoint" />
          </mxGeometry>
        </mxCell>
      </root>
    </mxGraphModel>
  </diagram>
</mxfile>
